<?xml version="1.0" standalone="no"?>
<!DOCTYPE svg PUBLIC "-//W3C//DTD SVG 20010904//EN"
 "http://www.w3.org/TR/2001/REC-SVG-20010904/DTD/svg10.dtd">
<svg version="1.0" xmlns="http://www.w3.org/2000/svg"
 width="1200.000000pt" height="1200.000000pt" viewBox="0 0 1200.000000 1200.000000"
 preserveAspectRatio="xMidYMid meet">
<metadata>
Created by potrace 1.14, written by Peter Selinger 2001-2017
</metadata>
<g transform="translate(0.000000,1200.000000) scale(0.100000,-0.100000)"
fill="#000000" stroke="none">
<path d="M3370 11428 c-224 -132 -388 -236 -530 -338 -69 -49 -176 -124 -239
-167 -63 -43 -127 -90 -142 -104 -16 -15 -38 -29 -51 -32 -118 -28 -176 -37
-267 -42 -58 -3 -160 -13 -226 -21 -213 -26 -385 -23 -385 6 0 4 -16 15 -36
25 -43 20 -115 13 -163 -16 -40 -24 -47 -42 -33 -93 9 -36 8 -42 -9 -54 -26
-18 -24 -31 6 -42 16 -6 25 -17 25 -32 0 -13 4 -29 9 -37 8 -12 12 -12 25 -2
20 17 36 5 68 -48 12 -20 34 -52 50 -71 15 -19 28 -38 28 -41 0 -9 67 -109 90
-134 20 -21 51 -64 97 -130 15 -22 42 -57 61 -78 37 -43 37 -59 1 -67 -35 -8
-33 -44 4 -48 15 -2 27 -7 27 -12 0 -5 4 -21 10 -35 9 -24 12 -25 30 -12 18
13 26 11 68 -10 37 -19 56 -23 90 -19 83 11 144 79 120 133 -7 15 -16 31 -20
34 -9 6 -45 69 -73 127 -18 38 -39 3 172 295 72 100 139 196 150 213 30 51
112 157 151 196 20 20 46 46 57 58 11 12 49 41 85 64 36 23 97 67 137 97 40
30 100 74 134 99 34 25 81 59 103 75 44 33 483 295 529 316 27 12 37 39 15 39
-7 0 -83 -41 -168 -92z m-1026 -704 c9 -3 16 -11 16 -18 -1 -43 -358 -547
-393 -554 -11 -2 -29 16 -54 54 -21 31 -47 69 -58 84 -30 41 -87 128 -126 190
-43 70 -96 141 -118 156 -28 21 -5 27 113 30 63 2 134 8 158 13 24 6 122 15
218 21 143 10 200 17 227 29 1 1 8 -2 17 -5z m-880 -13 c3 -4 -6 -13 -21 -20
-43 -20 -16 -36 69 -40 17 -1 40 -16 66 -43 46 -49 137 -169 158 -210 18 -35
120 -184 149 -219 12 -15 27 -40 34 -57 11 -27 10 -34 -10 -61 -17 -23 -20
-34 -12 -42 12 -12 25 -9 55 13 15 10 20 9 32 -7 21 -28 15 -40 -25 -43 -21
-2 -46 -15 -66 -34 -29 -28 -34 -30 -50 -17 -22 17 -62 64 -85 98 -10 14 -34
46 -53 71 -32 41 -60 81 -130 180 -13 19 -38 53 -55 76 -16 23 -30 45 -30 49
0 5 -6 16 -13 24 -7 9 -24 41 -37 71 -14 30 -34 69 -46 85 -12 17 -28 44 -36
62 -15 29 -14 32 5 52 22 21 90 30 101 12z"/>
<path d="M10225 11099 c-33 -5 -79 -10 -103 -13 -105 -12 -282 -94 -388 -179
-122 -99 -164 -195 -164 -378 0 -91 24 -216 46 -240 9 -10 40 -30 69 -45 l54
-29 66 18 67 18 46 -44 c37 -34 66 -49 135 -71 48 -15 87 -33 87 -40 0 -22 57
-67 94 -76 46 -10 132 9 175 39 17 12 43 38 57 57 23 30 26 41 22 92 -3 40
-11 67 -28 89 -23 32 -23 33 -7 95 9 35 18 75 21 89 4 19 20 32 65 53 62 29
166 122 182 163 16 44 11 131 -12 175 -29 58 -115 145 -169 172 -100 51 -204
69 -315 55z m232 -60 c79 -26 118 -53 160 -109 54 -74 65 -99 65 -156 1 -79
-41 -133 -151 -195 -87 -49 -142 -62 -286 -64 -111 -1 -137 -5 -177 -23 -46
-22 -88 -63 -88 -86 0 -39 -154 -136 -215 -136 -12 0 -42 14 -68 31 -64 42
-82 97 -81 240 2 150 23 216 91 289 68 73 164 136 261 171 43 14 91 31 107 37
93 34 282 34 382 1z m-244 -624 l48 -53 -16 -49 c-9 -28 -31 -74 -49 -104 -30
-49 -36 -54 -65 -51 -107 8 -252 116 -181 135 10 3 37 33 59 68 39 62 101 109
141 107 8 0 37 -24 63 -53z m160 -106 c20 -17 37 -36 37 -44 0 -7 7 -18 16
-25 21 -18 9 -87 -20 -118 -41 -46 -122 -71 -170 -52 -24 9 -26 14 -22 55 2
28 13 57 30 79 14 19 26 38 26 42 0 5 7 28 16 51 20 52 36 54 87 12z"/>
<path d="M5865 10780 c-59 -60 -126 -90 -202 -90 -38 0 -76 6 -94 16 -36 18
-73 15 -77 -7 -4 -20 61 -48 127 -56 62 -7 153 11 194 39 19 13 53 36 76 52
l42 29 32 -30 c60 -57 165 -93 271 -93 54 0 76 5 122 29 l55 30 68 -36 c88
-45 139 -49 237 -16 l73 25 34 -26 c63 -48 147 -80 213 -81 48 0 72 6 119 31
65 34 86 57 69 74 -8 8 -30 1 -79 -26 -109 -60 -192 -47 -298 44 -27 23 -54
42 -60 42 -7 0 -34 -12 -62 -26 -31 -17 -71 -28 -110 -31 -59 -5 -62 -4 -128
41 -37 25 -76 46 -86 46 -11 0 -38 -15 -60 -34 -51 -43 -110 -54 -190 -36 -80
19 -124 43 -161 90 -42 54 -73 54 -125 0z"/>
<path d="M2236 7110 c-38 -36 -58 -48 -72 -44 -16 4 -33 -9 -76 -63 -30 -37
-65 -86 -78 -108 -14 -22 -94 -132 -179 -245 -84 -113 -179 -245 -209 -295
-95 -155 -182 -286 -277 -415 -178 -242 -267 -381 -259 -404 13 -36 16 -208 5
-219 -18 -18 -12 -52 14 -77 24 -23 25 -23 45 -5 11 10 20 22 20 28 0 5 58 86
129 181 70 94 150 205 177 246 26 41 84 125 129 185 44 61 102 142 128 180 26
39 93 131 150 206 94 125 132 175 221 282 17 21 39 53 49 70 9 18 34 52 55 77
20 24 46 67 58 95 l20 50 105 2 c155 2 439 -21 439 -37 0 -4 -23 -10 -51 -13
-53 -7 -98 -19 -163 -45 -45 -19 -76 -63 -76 -108 0 -64 66 -88 235 -86 106 1
161 5 380 27 97 10 282 45 318 60 23 9 39 24 42 38 8 34 0 79 -16 87 -33 18
-202 42 -337 49 l-147 8 -115 52 c-63 29 -155 71 -205 94 -49 22 -158 75 -242
119 -83 43 -155 78 -158 78 -3 0 -30 -22 -59 -50z m163 -26 c39 -20 71 -40 71
-45 0 -9 -96 -103 -143 -140 l-28 -22 7 84 c4 46 8 100 10 119 3 40 3 40 8 40
3 0 36 -16 75 -36z m-126 -105 c-1 -55 -8 -100 -17 -117 -8 -15 -27 -54 -43
-87 l-28 -60 -5 140 c-3 77 -8 145 -13 152 -12 18 3 44 22 38 11 -3 27 5 41
20 36 38 45 18 43 -86z m367 -111 c0 -3 -181 -2 -255 2 -29 1 -28 2 45 69 l74
69 68 -69 c37 -37 68 -70 68 -71z m-490 -5 c0 -56 -4 -113 -10 -127 -9 -26
-11 -26 -109 -26 l-100 0 31 48 c17 26 40 55 50 65 10 10 27 35 38 57 30 60
81 114 91 98 5 -7 9 -59 9 -115z m553 71 c199 -90 232 -106 219 -111 -7 -3
-32 0 -55 5 -23 6 -72 14 -109 17 -57 6 -68 10 -68 26 0 10 -12 25 -27 33 -35
18 -91 76 -74 76 6 0 58 -21 114 -46z m643 -179 c54 -10 107 -21 118 -25 19
-8 19 -9 -5 -9 -14 -1 -50 3 -80 9 -72 13 -300 17 -424 6 -117 -9 -333 -76
-343 -105 -2 -6 -10 -11 -18 -11 -22 0 -7 51 23 76 83 70 475 102 729 59z
m-1196 -71 c0 -12 -102 -153 -166 -230 -37 -43 -97 -122 -135 -175 -79 -110
-96 -128 -104 -108 -5 16 -1 91 10 165 5 34 4 54 -4 58 -17 11 -29 -31 -38
-139 -7 -86 -11 -100 -27 -103 -27 -6 -126 8 -126 17 0 4 19 39 43 77 24 38
57 91 73 118 l29 48 95 4 c143 5 145 5 143 34 -6 100 -6 129 1 157 9 40 1 57
-22 44 -15 -8 -16 -24 -14 -105 l4 -96 -86 0 c-78 0 -103 8 -76 25 6 4 22 25
36 47 47 73 117 153 133 150 9 -2 21 -3 26 -2 33 2 191 17 198 18 4 1 7 -1 7
-4z m-464 -630 c-138 -198 -139 -199 -149 -173 -9 25 -5 122 7 149 3 8 2 22
-4 30 -18 29 -30 -5 -37 -103 l-6 -97 -68 0 c-37 0 -70 4 -73 9 -3 5 9 28 27
52 19 24 57 79 86 122 l52 77 92 0 c51 0 99 4 107 10 28 17 21 2 -34 -76z
m-235 -334 c-47 -71 -89 -129 -93 -130 -5 0 -9 29 -9 65 -1 36 -3 70 -4 75 -1
6 -3 28 -4 50 -1 29 -5 40 -17 40 -8 0 -12 5 -9 10 4 6 11 7 17 4 16 -10 162
-4 173 7 5 5 14 9 21 9 6 0 -27 -58 -75 -130z m-140 28 c2 -53 2 -83 0 -145
l-1 -33 -80 0 c-51 0 -80 4 -80 11 0 14 143 219 153 219 4 0 8 -24 8 -52z m-3
-223 c5 -5 -151 -204 -160 -204 -8 -1 -15 187 -8 199 3 4 11 9 18 11 15 5 145
0 150 -6z"/>
<path d="M5905 6599 c-23 -11 -47 -46 -117 -169 -48 -84 -79 -117 -188 -205
-251 -202 -434 -311 -677 -401 -37 -14 -101 -39 -141 -55 -41 -17 -93 -34
-115 -37 -33 -6 -43 -12 -45 -29 -4 -27 38 -41 71 -25 38 19 201 80 232 88 17
4 64 23 105 42 41 19 91 40 110 47 86 31 393 239 547 369 76 64 110 100 124
131 31 69 105 164 136 172 55 16 590 8 723 -10 215 -29 430 -48 552 -48 74 -1
118 -5 118 -11 0 -28 -84 -178 -170 -304 -32 -46 -77 -100 -130 -154 -30 -31
-71 -77 -91 -101 -20 -24 -63 -60 -95 -79 -33 -18 -86 -55 -119 -81 -33 -25
-75 -54 -94 -64 -19 -10 -89 -58 -155 -108 -118 -88 -265 -167 -310 -167 -43
0 -64 -50 -28 -68 22 -12 12 -16 222 81 35 16 120 80 149 111 14 14 29 26 34
26 6 0 18 6 26 14 9 8 39 26 66 41 28 16 70 44 95 64 25 21 71 52 102 71 59
35 138 101 138 116 0 5 18 22 41 37 22 16 57 52 78 80 22 29 54 68 72 88 19
20 41 45 49 56 34 44 60 83 60 88 0 4 13 25 28 48 15 23 32 51 38 61 6 11 16
22 22 24 17 5 21 -150 8 -373 -3 -66 -8 -180 -11 -253 -3 -74 -8 -144 -11
-156 -5 -21 16 -56 34 -56 34 1 36 18 39 257 2 131 5 341 7 467 l3 229 -35 31
c-49 43 -56 45 -194 47 -126 2 -161 5 -473 39 -116 13 -284 22 -475 25 -162 3
-304 7 -315 9 -11 2 -29 0 -40 -5z"/>
<path d="M10304 6440 c-43 -17 -98 -118 -87 -159 6 -24 -54 -110 -174 -247
-224 -258 -286 -324 -299 -324 -8 0 -32 9 -54 20 -47 24 -83 26 -101 4 -39
-47 -108 -52 -177 -13 -18 10 -40 19 -48 19 -30 0 -9 -32 36 -56 57 -31 124
-32 184 -3 l44 22 79 -22 c88 -23 139 -26 196 -10 62 17 40 35 -39 30 l-68 -3
34 40 c19 22 39 41 43 41 16 2 77 -55 77 -71 0 -21 23 -23 67 -7 26 8 41 6 94
-15 40 -17 82 -26 117 -26 30 0 78 -7 107 -15 48 -15 59 -14 115 0 33 9 71 20
84 26 18 8 30 7 52 -4 45 -23 280 -19 317 6 15 9 27 24 27 31 0 11 -11 10 -52
-6 -47 -18 -59 -18 -110 -8 -40 9 -65 9 -86 2 -25 -8 -39 -6 -82 14 -59 27
-71 29 -88 12 -13 -13 -79 -39 -106 -41 -18 -2 -20 7 -24 132 -2 74 -1 190 3
260 l7 125 36 33 c31 28 36 40 40 89 4 52 3 58 -24 81 -32 26 -86 53 -106 52
-7 0 -23 -4 -34 -9z m-54 -295 c23 -8 55 -15 71 -15 26 0 29 -3 29 -35 0 -51
-28 -75 -90 -75 -41 0 -55 5 -85 31 l-35 31 28 39 c15 21 30 39 33 39 4 0 26
-7 49 -15z m-120 -114 c0 -5 16 -19 37 -31 29 -17 50 -21 102 -19 l66 3 3 -61
c3 -58 2 -61 -20 -61 -13 0 -45 -6 -71 -13 -59 -15 -124 -2 -174 37 -58 44
-59 58 -12 109 38 42 69 58 69 36z m-111 -155 c15 -13 48 -36 75 -50 57 -30
142 -35 199 -11 20 8 38 11 41 6 7 -11 10 -120 4 -126 -3 -3 -16 -2 -29 3 -13
5 -49 7 -79 5 -41 -4 -67 0 -103 16 -27 12 -61 21 -76 21 -37 0 -80 22 -116
60 l-29 30 34 35 c19 19 38 35 44 35 5 0 21 -11 35 -24z"/>
<path d="M9955 3560 c-48 -60 -91 -110 -96 -110 -5 0 -12 -12 -15 -27 -4 -16
-15 -39 -24 -53 -9 -14 -34 -56 -55 -95 -21 -38 -48 -86 -60 -105 -12 -19 -41
-69 -65 -110 -23 -41 -92 -160 -152 -264 -60 -104 -112 -196 -115 -205 -4 -9
-23 -45 -43 -81 -21 -36 -62 -112 -92 -170 -30 -58 -65 -121 -77 -140 -39 -65
-64 -125 -67 -165 -15 -199 -16 -308 -3 -316 27 -17 45 -9 57 25 7 19 26 51
43 72 62 78 128 184 237 384 19 36 47 83 61 105 14 22 44 76 67 120 22 44 67
127 100 185 33 58 66 114 72 125 22 39 103 208 128 267 14 33 37 79 52 102 14
22 44 73 65 111 22 39 52 92 67 118 21 37 29 45 38 35 17 -22 140 -281 148
-313 3 -16 38 -93 76 -169 73 -145 137 -289 195 -439 42 -109 140 -327 192
-427 109 -208 201 -395 201 -407 0 -19 28 -27 44 -14 18 15 29 87 27 179 -2
66 0 72 19 72 26 0 25 20 -4 78 -12 26 -35 83 -51 127 -28 82 -65 169 -161
376 -30 65 -54 119 -54 123 0 3 -47 102 -105 219 -58 118 -105 220 -105 226 0
6 -15 42 -34 79 -18 37 -39 92 -45 124 -7 31 -27 100 -46 155 -32 90 -38 100
-79 128 -25 17 -90 65 -145 108 -56 42 -103 77 -105 77 -3 0 -44 -49 -91 -110z
m205 -16 c67 -49 111 -94 103 -106 -2 -5 -42 -8 -89 -8 -74 0 -86 2 -92 19 -9
25 -3 141 8 141 4 0 36 -21 70 -46z m92 -162 c8 -8 7 -34 -2 -94 -20 -137 -20
-137 -79 -21 -28 57 -51 107 -51 112 0 18 114 21 132 3z m84 -37 c21 -50 58
-194 52 -200 -3 -3 -29 -2 -59 2 -40 6 -55 13 -57 26 -6 28 29 207 40 207 5 0
16 -16 24 -35z m-454 -52 c-4 -114 -7 -121 -50 -132 -46 -13 -82 -14 -82 -2 0
5 19 44 43 86 23 42 48 87 55 101 26 47 38 29 34 -53z m-4 -180 c-1 -5 -17
-37 -35 -73 -17 -36 -48 -101 -69 -145 l-37 -80 -9 40 c-5 22 -7 82 -5 132 3
52 1 95 -4 98 -17 11 -9 24 19 28 49 7 144 7 140 0z m487 -13 c19 -7 24 -15
21 -32 -3 -13 -8 -62 -11 -110 -4 -49 -11 -88 -16 -88 -15 0 -99 187 -99 222
0 14 8 18 39 18 22 0 51 -4 66 -10z m-682 -138 c-1 -42 -2 -91 -2 -108 -1 -29
-5 -33 -45 -43 -54 -13 -96 -14 -96 -2 0 8 40 84 95 181 15 25 36 50 44 50 3
0 5 -35 4 -78z m811 -151 c18 -1 19 -8 12 -119 -7 -132 2 -161 52 -163 15 0
51 -6 80 -12 l53 -12 35 -80 c57 -129 67 -156 61 -161 -2 -3 -41 -6 -85 -8
l-81 -3 -37 86 c-20 47 -56 133 -80 191 -23 58 -61 145 -83 193 -23 49 -41 91
-41 94 0 2 21 2 48 -1 26 -2 56 -5 66 -5z m-774 -15 c0 -8 -32 -72 -71 -142
-40 -71 -95 -172 -124 -224 -123 -223 -167 -300 -175 -300 -5 0 -8 64 -7 143
l2 142 55 11 c30 6 62 7 71 3 19 -10 44 5 34 21 -4 7 0 13 11 16 17 5 19 18
21 141 1 100 5 138 15 144 7 5 39 11 72 15 45 5 60 11 63 25 6 22 33 26 33 5z
m887 -116 c22 -41 43 -87 46 -102 7 -26 6 -26 -36 -21 -23 3 -52 12 -65 20
-21 13 -22 18 -17 91 11 128 11 128 72 12z m-1107 -67 c0 -144 0 -143 -74
-143 -35 0 -66 3 -69 7 -6 5 39 97 99 200 34 58 44 43 44 -64z m-192 -370 l-3
-137 -65 3 c-36 1 -69 6 -74 11 -4 5 8 39 29 77 21 37 48 88 61 112 24 45 43
71 51 71 3 0 3 -62 1 -137z m1458 -48 c8 -20 -6 -205 -15 -205 -6 0 -92 167
-109 212 -2 4 24 8 57 8 46 0 63 -4 67 -15z m94 -85 c12 -41 33 -96 46 -122
33 -65 32 -69 -18 -62 -85 13 -88 16 -88 86 0 35 3 94 7 131 8 84 20 76 53
-33z m-1572 -50 c12 0 22 -5 22 -12 0 -14 -119 -191 -160 -238 l-31 -35 6 128
c3 70 8 134 11 142 7 16 45 24 94 19 19 -2 45 -4 58 -4z"/>
<path d="M6660 3180 c-11 -11 -20 -24 -20 -29 0 -15 18 -23 25 -11 9 15 49 12
107 -9 29 -11 85 -29 125 -40 66 -20 151 -68 197 -111 18 -18 18 -20 -9 -101
-39 -120 -95 -227 -173 -337 -38 -54 -86 -122 -107 -152 -75 -108 -153 -198
-345 -395 -217 -223 -278 -274 -495 -416 -82 -54 -165 -113 -184 -131 -19 -18
-59 -46 -90 -63 -55 -30 -73 -57 -52 -78 8 -8 17 -5 33 9 13 12 43 32 68 46
25 15 56 38 69 52 14 14 28 26 33 26 5 0 30 16 56 36 26 19 97 67 157 106 61
39 112 74 115 78 3 4 28 25 55 45 69 52 370 356 483 488 50 59 122 153 159
210 37 56 82 120 101 142 38 45 136 242 159 319 8 28 24 61 36 74 16 17 19 27
11 39 -14 23 -169 120 -218 137 -79 26 -265 86 -270 86 -4 0 -15 -9 -26 -20z"/>
<path d="M6490 3103 c-25 -8 -65 -29 -90 -46 -37 -26 -56 -32 -107 -34 -35 -1
-71 -7 -81 -12 -10 -5 -48 -15 -85 -21 -64 -11 -67 -13 -78 -48 -7 -21 -13
-61 -12 -89 0 -50 -2 -55 -41 -87 -22 -18 -70 -52 -106 -74 -110 -71 -173
-119 -235 -181 -33 -34 -67 -61 -75 -61 -9 0 -32 -21 -50 -47 -19 -27 -69 -84
-111 -128 -123 -128 -267 -323 -339 -460 -15 -27 -36 -66 -48 -85 -22 -37 -17
-65 10 -55 9 4 22 20 28 36 7 16 28 50 46 76 19 27 34 55 34 64 0 24 108 180
189 274 67 78 173 187 177 182 2 -2 -5 -50 -16 -106 -11 -56 -20 -113 -20
-126 0 -29 44 -132 68 -158 38 -43 133 -97 213 -121 90 -28 138 -32 167 -16 9
5 37 14 60 20 58 15 127 83 142 141 13 49 6 113 -16 147 -13 20 -85 59 -140
76 -32 10 -114 93 -132 134 -8 20 -18 59 -21 86 -5 42 -10 51 -31 56 -14 4
-44 13 -68 21 l-43 12 48 49 c26 27 86 74 133 105 47 31 96 64 110 74 49 37
80 51 81 37 3 -72 52 -248 69 -248 4 0 21 -13 36 -30 44 -46 116 -72 242 -86
l113 -13 77 36 c103 48 142 78 142 108 0 13 7 39 16 58 13 27 14 40 4 75 -14
52 -66 89 -148 104 -56 10 -69 15 -162 65 -57 30 -100 86 -100 130 0 27 7 38
43 64 57 42 105 65 150 73 38 7 50 29 21 40 -9 3 -16 6 -17 6 -1 -1 -22 -8
-47 -17z"/>
<path d="M3147 2253 c-1 -1 -90 -4 -197 -7 -292 -8 -467 -23 -650 -53 -143
-23 -193 -27 -375 -27 -120 0 -236 5 -270 12 -76 15 -116 2 -194 -60 -76 -60
-175 -129 -236 -163 -27 -16 -62 -40 -78 -54 l-27 -25 -44 21 c-38 19 -46 20
-62 8 -24 -17 -11 -32 43 -53 54 -21 90 -18 118 8 24 22 25 22 60 6 34 -16 39
-16 90 1 30 10 55 23 55 28 0 6 -27 10 -59 10 -33 0 -62 3 -66 6 -3 4 33 34
82 66 48 33 123 83 165 113 l76 53 158 -14 158 -14 7 -35 c4 -19 9 -62 10 -95
l3 -60 -31 3 c-17 2 -46 -4 -63 -13 -29 -15 -34 -15 -55 -1 -33 22 -55 20 -55
-4 0 -11 12 -26 30 -35 35 -18 53 -19 97 -3 28 10 38 9 62 -5 16 -9 40 -17 53
-17 36 0 123 36 123 51 0 15 -16 16 -80 4 l-40 -7 -4 69 c-2 37 -4 86 -5 108
l-1 40 135 12 c74 7 193 22 265 33 218 35 652 57 675 34 18 -18 42 -178 31
-207 -11 -28 -61 -44 -105 -33 -28 7 -39 -4 -29 -29 5 -16 15 -17 87 -10 45 5
102 8 127 6 55 -2 159 34 159 55 0 18 -21 18 -85 -2 -51 -16 -53 -16 -83 6
-26 19 -31 31 -37 84 -3 33 -11 76 -17 94 -6 20 -6 38 -1 43 4 4 55 10 113 13
101 4 135 16 88 32 -20 6 -116 12 -121 7z"/>
<path d="M5023 1653 c-37 -15 18 -90 127 -173 112 -85 214 -156 251 -175 37
-20 154 -24 171 -7 19 19 -2 31 -72 38 -69 6 -72 8 -208 106 -75 54 -162 125
-192 158 -31 33 -58 60 -60 59 -3 0 -11 -3 -17 -6z"/>
</g>
</svg>
