<svg width="100" height="100" viewBox="0 0 100 100" fill="none" xmlns="http://www.w3.org/2000/svg">
<g clip-path="url(#clip0)">
<path fill-rule="evenodd" clip-rule="evenodd" d="M41.9061 10.5903C42.1372 10.5903 44.1241 8.18343 46.3421 5.29516C48.5139 2.35875 50.4084 -3.01881e-08 50.5471 -3.01881e-08C50.6395 -3.01881e-08 52.8112 1.68482 55.3989 3.7066C57.9403 5.77653 60.9439 8.08714 62.0991 8.90549C63.9936 10.2533 64.2708 10.7347 65.7495 15.0671C66.6275 17.7147 67.5516 21.0362 67.8751 22.5285C68.1523 24.0689 69.1227 26.7165 69.9544 28.4976C70.8324 30.2787 71.5255 32.0116 71.5255 32.3004C71.5255 32.5893 73.6973 37.4993 76.3774 43.1796C79.0574 48.8117 81.2292 53.5773 81.2292 53.7217C81.2292 53.9143 82.3382 56.5137 83.7244 59.6427C88.1604 69.6072 89.8701 73.7952 91.1639 77.7425C91.9033 79.8606 92.966 82.6044 93.5205 83.856C94.8606 86.648 94.9068 87.6107 93.7054 87.6107C92.8274 87.6107 92.735 87.8996 92.8274 91.0767C92.9198 95.5053 92.4116 98.9713 91.5798 99.6933C90.8405 100.319 89.5467 99.934 89.5467 99.0194C89.5467 98.4417 85.2955 89.44 80.2588 79.4273C77.856 74.6135 73.3276 64.1195 71.3869 58.8725C68.7068 51.6518 65.7495 44.72 62.3763 37.74C60.6204 34.0815 59.0031 30.3749 58.8645 29.6047C58.4948 28.0643 52.8112 15.5966 52.0257 14.5376C51.6098 14.0562 51.2402 14.4413 50.2698 16.2224C49.5767 17.474 48.1904 20.0253 47.1739 21.9027C46.2035 23.7319 44.8172 26.187 44.1703 27.246C43.4772 28.3531 42.4144 30.5675 41.7675 32.156C40.6123 34.9962 36.8695 43.1314 35.8529 45.0088C35.7329 45.238 35.3791 45.8731 34.8928 46.7461C34.2555 47.8901 33.3907 49.4426 32.5259 51.026C31.001 53.818 28.9217 57.8135 27.9051 59.9315C26.8423 62.0496 25.4561 64.649 24.8092 65.7081C24.1622 66.7671 22.8684 69.0296 21.9905 70.7625C16.9538 80.3901 13.9041 85.4927 11.0392 89.2474C10.2536 90.2583 9.37566 91.7987 9.05221 92.7133C8.49771 94.35 7.66597 94.7351 6.41835 93.9168C5.81764 93.5317 5.86385 88.2847 6.55697 78.7053C6.6956 76.7797 7.8508 73.8915 9.65291 70.7625C10.2074 69.8479 11.8247 66.8152 13.2109 64.0232C14.5972 61.2312 16.4917 57.5728 17.4621 55.8398C18.3862 54.1069 19.2642 52.3739 19.449 51.9407C19.5876 51.5074 21.9905 47.0787 24.7629 42.0724C25.4923 40.7555 26.2503 39.3886 26.9909 38.0532L26.9911 38.0529C29.0659 34.312 31.0034 30.8185 31.7866 29.364C31.9955 28.9922 32.2126 28.605 32.4312 28.2153C33.3726 26.5364 34.3401 24.8112 34.7901 24.0689C35.3446 23.1543 36.5922 20.8437 37.5626 19.0144C38.533 17.137 39.6882 15.1153 40.104 14.4413C40.5199 13.7674 41.0282 12.6602 41.213 11.89C41.3516 11.168 41.6751 10.5903 41.9061 10.5903ZM60.5742 11.1679C60.9439 10.5902 58.9107 8.42403 55.8148 6.06528C54.2437 4.86184 52.7651 3.85094 52.5803 3.85094C52.072 3.85094 51.7947 9.43493 52.2106 10.6384C52.4878 11.4567 53.0423 11.553 56.4617 11.553C58.6335 11.553 60.4818 11.4086 60.5742 11.1679ZM60.066 13.8636C60.4356 14.2487 60.3894 15.5003 59.9735 18.3886C59.5031 21.7457 59.2721 23.3939 58.7991 23.4665C58.3429 23.5366 57.6616 22.1411 56.3231 19.3995C55.0292 16.6556 53.9664 14.2487 53.9664 14.008C53.9664 13.1416 59.2342 12.9971 60.066 13.8636ZM66.3502 25.2723C66.6275 24.9834 64.9178 18.0516 63.9474 15.6448C63.5777 14.7302 63.0694 13.96 62.8384 13.96C62.3301 13.96 60.7128 22.5766 60.9901 23.9244C61.0825 24.5502 61.7756 24.8872 63.6239 25.176C65.0102 25.3685 66.2116 25.4167 66.3502 25.2723ZM42.9689 18.1479C42.7841 23.6356 42.6455 23.9726 40.6585 24.5021C38.533 25.1279 36.8695 25.176 36.8695 24.5984C36.8695 24.3577 37.7474 22.4803 38.8564 20.4585C39.1418 19.9155 39.4339 19.3621 39.7148 18.83C40.4797 17.3808 41.1613 16.0895 41.3979 15.5966C42.5993 13.3341 43.1538 14.2006 42.9689 18.1479ZM41.1668 30.3269C41.9985 28.5939 42.7379 27.0535 42.7841 26.8128C42.9689 26.4758 38.5792 26.4758 36.315 26.8128C35.0212 27.0054 34.6515 27.6311 35.437 28.1607C35.6681 28.3051 35.7605 30.375 35.6219 32.8782C35.5294 35.285 35.6219 38.1733 35.8529 39.2323L36.2688 41.1578L37.9785 37.3068C38.9488 35.1888 40.3813 32.0598 41.1668 30.3269ZM65.2874 27.4385C66.1654 27.7755 66.3964 28.1606 66.2578 28.9789C66.1192 29.6047 65.8881 31.9635 65.7495 34.2741C65.5647 36.6328 65.2412 38.5102 65.0102 38.5102C64.3171 38.5102 60.4356 29.5085 60.4356 27.8236C60.4356 27.1497 60.8053 26.9572 62.2377 26.9572C63.2543 26.9572 64.5943 27.1497 65.2874 27.4385ZM33.6811 39.2804C33.6811 38.4621 33.7273 36.1033 33.7735 34.0815C33.8197 32.0116 33.7273 30.3267 33.5887 30.3267C33.219 30.3267 32.2487 31.5302 31.5555 32.7337C29.0141 37.403 27.1658 41.0616 27.1658 41.4467C27.1658 42.0243 29.1065 41.9762 31.6017 41.3504C33.4501 40.869 33.6349 40.6764 33.6811 39.2804ZM71.2483 41.3504C72.08 41.3985 72.1262 41.7355 71.8028 47.0787C71.4793 53.4329 71.8952 54.8289 74.2056 54.9252C74.8987 54.9252 76.5622 55.214 77.9022 55.5028L80.3513 56.0805L81.9686 59.9315C84.6024 66.1413 85.0645 67.441 84.7872 67.6817C84.6948 67.8261 82.8927 67.9705 80.8596 68.0668L77.1167 68.2112L75.407 64.0714C74.4828 61.8089 72.8194 57.669 71.7104 54.8771C70.6476 52.0851 68.8917 47.8971 67.8751 45.5865C66.8123 43.2277 65.9806 41.2059 65.9806 41.0615C65.9806 40.9653 66.9509 40.9653 68.1986 41.1097C68.6043 41.1422 69.0311 41.1802 69.4363 41.2163L69.4367 41.2163L69.4374 41.2164L69.4377 41.2164C70.2317 41.2871 70.9425 41.3504 71.2483 41.3504ZM32.2024 48.908C34.0046 45.5383 35.4832 42.4575 35.4832 42.0724C35.4832 41.0615 34.2356 41.254 33.9583 42.3131C33.8197 42.987 33.1266 43.2758 31.0472 43.5165C29.5224 43.7091 28.0437 43.9979 27.7203 44.2386C27.2582 44.5274 27.0734 46.3567 27.0271 51.1704C26.9347 57.0914 26.8423 57.7172 26.0568 57.9579C25.5485 58.1023 25.3637 58.3911 25.5485 58.7281C26.0106 59.4983 24.8554 60.2204 23.9774 59.739C23.5615 59.5464 22.0829 59.5946 20.6966 59.8834L18.1552 60.4129L18.0628 67.2485C18.0166 71.0514 18.1552 74.1322 18.3862 74.1322C18.7559 74.1322 20.7891 70.4256 26.4727 59.6909C26.9961 58.7131 27.7029 57.3753 28.48 55.9044L28.4807 55.9031L28.4812 55.9021L28.4815 55.9016C29.6935 53.6076 31.0766 50.9898 32.2024 48.908ZM76.4698 47.6564C77.4864 49.63 78.4567 51.8444 78.5953 52.5664C78.9188 53.818 78.8726 53.818 76.9319 53.5773C75.8691 53.4329 74.5291 52.9997 73.9284 52.6146C72.958 51.9888 72.9118 51.7481 73.1428 48.234C73.3962 45.1625 73.5233 43.6221 73.9362 43.5413C74.3515 43.4599 75.0562 44.8559 76.4698 47.6564ZM24.5277 57.3813C25.3175 56.7601 25.3175 55.1347 25.3175 50.8816C25.3175 45.7309 24.8554 45.0089 23.2844 47.8008C20.5118 52.759 18.4325 57.1876 18.7097 57.4283C18.8483 57.6209 20.2808 57.7653 21.8981 57.7653L21.9683 57.7653C23.2483 57.7654 24.0391 57.7655 24.5277 57.3813ZM16.4455 68.6926L16.3069 75.2875L13.3033 75.1431C11.6399 75.0949 10.115 74.8542 9.88396 74.6135C9.69912 74.3729 10.2536 72.7362 11.224 70.9069C11.957 69.5616 12.8481 67.8317 13.4992 66.5679L13.4994 66.5675L13.4995 66.5671C13.7103 66.1581 13.8958 65.798 14.0427 65.5155C15.1517 63.3493 16.0296 62.0977 16.3993 62.0977C16.5379 62.0977 16.5379 65.0822 16.4455 68.6926ZM83.1238 80.8714C83.5396 80.8714 84.1865 71.966 83.8169 71.0033C83.632 70.4737 82.8465 70.2812 80.7209 70.2812C79.196 70.2812 77.9946 70.4737 78.087 70.6663C78.8726 72.8325 82.8465 80.8714 83.1238 80.8714ZM88.1605 75.095C88.715 77.0686 89.6853 79.7162 90.286 80.9678C91.8109 84.0968 91.7647 84.2893 89.4543 83.9523C85.5266 83.3266 85.388 83.1821 85.388 79.8125C85.388 78.1277 85.5266 75.2875 85.7114 73.5064C86.0811 69.4629 86.6356 69.848 88.1605 75.095ZM16.5379 78.0794C16.5379 77.7425 16.0759 77.5018 15.5214 77.5018C14.9207 77.5018 13.7192 77.4055 12.8413 77.3092C10.5771 77.0685 8.8212 77.4536 8.49774 78.2239C8.35912 78.609 8.12808 81.6898 7.98945 85.0595L7.71221 91.2211L9.14465 89.5363C11.0392 87.2738 16.5379 78.7534 16.5379 78.0794Z" fill="black"/>
</g>
<defs>
<clipPath id="clip0">
<rect width="100" height="100" fill="white"/>
</clipPath>
</defs>
</svg>
